<?xml version="1.0" encoding="utf-8"?>
<!-- Generator: Adobe Illustrator 21.0.2, SVG Export Plug-In . SVG Version: 6.00 Build 0)  -->
<svg version="1.1" id="Ebene_1" xmlns="http://www.w3.org/2000/svg" xmlns:xlink="http://www.w3.org/1999/xlink" x="0px" y="0px"
	 viewBox="0 0 856 488" style="enable-background:new 0 0 856 488;" xml:space="preserve">
<style type="text/css">
	.st0{fill:url(#SVGID_1_);}
	.st1{fill:url(#SVGID_2_);}
	.st2{fill:url(#SVGID_3_);}
	.st3{fill:url(#SVGID_4_);}
	.st4{fill:url(#SVGID_5_);}
	.st5{fill:url(#SVGID_6_);}
	.st6{fill:url(#SVGID_7_);}
	.st7{fill:url(#SVGID_8_);}
	.st8{fill:url(#SVGID_9_);}
	.st9{fill:url(#SVGID_10_);}
	.st10{fill:url(#SVGID_11_);}
	.st11{fill:url(#SVGID_12_);}
	.st12{fill:url(#SVGID_13_);}
	.st13{fill:url(#SVGID_14_);}
	.st14{fill:url(#SVGID_15_);}
	.st15{fill:#FDEFF0;}
	.st16{display:none;}
	.st17{display:inline;fill:none;stroke:#000000;stroke-width:6;stroke-miterlimit:10;}
	.st18{fill:url(#SVGID_16_);stroke:#000000;stroke-width:4;stroke-miterlimit:10;}
	.st19{display:inline;fill:none;stroke:#000000;stroke-width:5;stroke-miterlimit:10;}
	.st20{display:inline;fill:none;stroke:#000000;stroke-width:7;stroke-miterlimit:10;}
	.st21{fill:none;stroke:#000000;stroke-width:5;stroke-miterlimit:10;}
	.st22{fill:none;stroke:#000000;stroke-width:7;stroke-miterlimit:10;}
</style>
<g id="Ebene_2_1_">
</g>
<g id="Ebene_3">
</g>
<g id="Ebene_1_2_">
	<g id="Ebene_1_1_">
	</g>
	<g id="wing">
		<g>
			
				<linearGradient id="SVGID_1_" gradientUnits="userSpaceOnUse" x1="101.5737" y1="65.1653" x2="132.8714" y2="235.7365" gradientTransform="matrix(1 0 0 -1 0 524)">
				<stop  offset="0.2695" style="stop-color:#C1495F"/>
				<stop  offset="1" style="stop-color:#353535"/>
			</linearGradient>
			<path class="st0" d="M203,363.5c-5.8-15.7-23.2-23.8-38.9-18c-9.2,3.4-15.8,10.8-18.5,19.4c-5.8-15.7-23.2-23.8-38.9-18
				c-7.7,2.8-13.5,8.4-16.8,15.2L60.4,343l-25.2,5.8c-4.1,7.4-5.1,16.5-2,25.1c5.7,15.7,23.1,23.8,38.8,18
				c6.5-2.4,11.6-6.8,15.1-12.2c0.3,2,0.8,4.1,1.5,6.1c5.8,15.7,23.2,23.8,38.9,18c9.2-3.4,15.8-10.8,18.5-19.4
				c5.8,15.7,23.2,23.8,38.9,18C200.7,396.6,208.7,379.2,203,363.5z"/>
			
				<linearGradient id="SVGID_2_" gradientUnits="userSpaceOnUse" x1="34.5999" y1="194.7089" x2="246.4" y2="194.7089" gradientTransform="matrix(1 0 0 -1 0 524)">
				<stop  offset="0.1321" style="stop-color:#E6CBE3"/>
				<stop  offset="1" style="stop-color:#ED88D6"/>
			</linearGradient>
			<path class="st1" d="M219.5,280.5l26.9,73.2c0,0-150.2,58.3-211.8-5.4C34.5,348.4,198.1,309.6,219.5,280.5z"/>
		</g>
		<g>
			
				<linearGradient id="SVGID_3_" gradientUnits="userSpaceOnUse" x1="25.6594" y1="246.5248" x2="147.4562" y2="328.363" gradientTransform="matrix(1 0 0 -1 0 524)">
				<stop  offset="0.2695" style="stop-color:#C1495F"/>
				<stop  offset="1" style="stop-color:#353535"/>
			</linearGradient>
			<path class="st2" d="M133.1,247c-9.4-2.5-19-0.3-26.3,5.2c4.3-16.1-5.3-32.7-21.4-37c-7.9-2.1-15.8-0.9-22.5,2.7l-13.1-32.6
				l-23.9-9.8c-7.6,3.7-13.7,10.6-16.1,19.4c-4.3,16.1,5.3,32.7,21.4,37c6.6,1.8,13.4,1.2,19.3-1.2c-0.9,1.8-1.7,3.8-2.2,5.9
				c-4.3,16.2,5.3,32.8,21.4,37.1c9.4,2.5,19,0.3,26.3-5.2c-4.3,16.1,5.3,32.7,21.4,37c16.2,4.3,32.8-5.3,37.1-21.4
				S149.2,251.3,133.1,247z"/>
			
				<linearGradient id="SVGID_4_" gradientUnits="userSpaceOnUse" x1="44.2671" y1="303.8297" x2="228.1345" y2="254.7697" gradientTransform="matrix(1 0 0 -1 0 524)">
				<stop  offset="0.3586" style="stop-color:#E6CBE3"/>
				<stop  offset="1" style="stop-color:#ED88D6"/>
			</linearGradient>
			<path class="st3" d="M215.8,225.7L195.6,301c0,0-156.3-38.8-170.1-126.3C25.5,174.7,181.7,237.2,215.8,225.7z"/>
		</g>
		<g>
			
				<linearGradient id="SVGID_5_" gradientUnits="userSpaceOnUse" x1="107.9269" y1="410.3851" x2="215.789" y2="445.0323" gradientTransform="matrix(1 0 0 -1 0 524)">
				<stop  offset="0.2695" style="stop-color:#C1495F"/>
				<stop  offset="1" style="stop-color:#353535"/>
			</linearGradient>
			<path class="st4" d="M178.7,130.9c-7.8-5.8-17.5-7.3-26.2-4.9c9.9-13.4,7.1-32.3-6.2-42.3c-6.5-4.9-14.4-6.7-21.9-5.8l-0.1-35.1
				l-18.6-17.9c-8.5,0.6-16.6,4.7-22.1,12.1c-10,13.4-7.3,32.3,6.1,42.4c5.5,4.1,12,6,18.4,5.9c-1.5,1.4-2.9,2.9-4.2,4.6
				c-10,13.4-7.3,32.4,6.1,42.4c7.8,5.8,17.5,7.3,26.2,4.9c-9.9,13.4-7.1,32.3,6.2,42.3c13.4,10,32.4,7.3,42.4-6.1
				C194.9,159.9,192.2,140.9,178.7,130.9z"/>
			
				<linearGradient id="SVGID_6_" gradientUnits="userSpaceOnUse" x1="129.6026" y1="428.7979" x2="266.6219" y2="346.5455" gradientTransform="matrix(1 0 0 -1 0 524)">
				<stop  offset="0.393" style="stop-color:#E6CBE3"/>
				<stop  offset="1" style="stop-color:#ED88D6"/>
			</linearGradient>
			<path class="st5" d="M263.5,141.9l-46.7,62.5c0,0-130.7-94-111.1-180.4C105.7,24,227.5,139.9,263.5,141.9z"/>
			<g>
				
					<linearGradient id="SVGID_7_" gradientUnits="userSpaceOnUse" x1="749.9933" y1="416.7342" x2="637.1651" y2="426.9544" gradientTransform="matrix(1 0 0 -1 0 524)">
					<stop  offset="0.3945" style="stop-color:#C1495F"/>
					<stop  offset="1" style="stop-color:#353535"/>
				</linearGradient>
				<path class="st6" d="M777,37c-5.5-7.4-13.6-11.5-22.1-12.1l-18.6,17.9l-0.1,35.1c-7.5-0.9-15.4,0.9-21.9,5.8
					c-13.4,10-16.1,28.9-6.2,42.3c-8.7-2.4-18.4-0.9-26.2,4.9c-13.4,10-16.1,29-6.1,42.4s29,16.1,42.4,6.1s16.1-28.9,6.2-42.3
					c8.7,2.4,18.4,0.9,26.2-4.9c13.4-10,16.1-29,6.1-42.4c-1.3-1.7-2.7-3.2-4.2-4.6c6.4,0.1,12.9-1.8,18.4-5.9
					C784.3,69.3,787,50.4,777,37z"/>
				
					<linearGradient id="SVGID_8_" gradientUnits="userSpaceOnUse" x1="732.4308" y1="442.6753" x2="609.0611" y2="341.0897" gradientTransform="matrix(1 0 0 -1 0 524)">
					<stop  offset="0.5494" style="stop-color:#E6CBE3"/>
					<stop  offset="1" style="stop-color:#ED88D6"/>
				</linearGradient>
				<path class="st7" d="M755,24c19.6,86.4-111.1,180.4-111.1,180.4l-46.7-62.5C633.2,139.9,755,24,755,24z"/>
			</g>
		</g>
		<g>
			
				<linearGradient id="SVGID_9_" gradientUnits="userSpaceOnUse" x1="755.826" y1="72.0138" x2="710.2426" y2="239.3345" gradientTransform="matrix(1 0 0 -1 0 524)">
				<stop  offset="0.2695" style="stop-color:#C1495F"/>
				<stop  offset="1" style="stop-color:#353535"/>
			</linearGradient>
			<path class="st8" d="M816.1,348.9l-25.2-5.8l-29.5,19.1c-3.3-6.8-9.1-12.4-16.8-15.2c-15.7-5.8-33.1,2.3-38.9,18
				c-2.7-8.7-9.3-16.1-18.5-19.4c-15.7-5.8-33.1,2.3-38.9,18c-5.8,15.7,2.3,33.1,18,38.9c15.7,5.8,33.1-2.3,38.9-18
				c2.7,8.7,9.3,16.1,18.5,19.4c15.7,5.8,33.1-2.3,38.9-18c0.7-2,1.2-4.1,1.5-6.1c3.4,5.4,8.6,9.8,15.1,12.2
				c15.7,5.8,33.1-2.3,38.8-18C821.2,365.3,820.2,356.3,816.1,348.9z"/>
			
				<linearGradient id="SVGID_10_" gradientUnits="userSpaceOnUse" x1="812.9067" y1="146.2502" x2="610.5881" y2="209.0587" gradientTransform="matrix(1 0 0 -1 0 524)">
				<stop  offset="0.2172" style="stop-color:#E6CBE3"/>
				<stop  offset="1" style="stop-color:#ED88D6"/>
			</linearGradient>
			<path class="st9" d="M816.9,348.3C755.2,412,605,353.7,605,353.7l26.9-73.2C653.2,309.6,816.9,348.3,816.9,348.3z"/>
		</g>
	</g>
	<g id="wing2">
		<g>
			
				<linearGradient id="SVGID_11_" gradientUnits="userSpaceOnUse" x1="807.8298" y1="239.5866" x2="700.7408" y2="340.0882" gradientTransform="matrix(1 0 0 -1 0 524)">
				<stop  offset="0.3345" style="stop-color:#C1495F"/>
				<stop  offset="1" style="stop-color:#353535"/>
			</linearGradient>
			<path class="st10" d="M833.4,195.8c-2.4-8.8-8.5-15.7-16.1-19.4l-23.9,9.8l-13.1,32.6c-6.6-3.6-14.6-4.8-22.5-2.7
				c-16.2,4.3-25.8,20.9-21.4,37.1l0,0c-7.2-5.6-16.9-7.9-26.4-5.3c-16.2,4.3-25.8,20.9-21.4,37.1c4.3,16.2,20.9,25.8,37.1,21.4
				c16.2-4.3,25.8-20.9,21.4-37.1l0,0c7.2,5.6,16.9,7.9,26.4,5.3c16.2-4.3,25.8-20.9,21.4-37.1c-0.6-2.1-1.3-4-2.3-5.9
				c5.9,2.4,12.7,3,19.3,1.2C828.1,228.5,837.7,211.9,833.4,195.8z"/>
			
				<linearGradient id="SVGID_12_" gradientUnits="userSpaceOnUse" x1="796.8603" y1="316.1685" x2="617.7238" y2="251.9486" gradientTransform="matrix(1 0 0 -1 0 524)">
				<stop  offset="0.2695" style="stop-color:#E6CBE3"/>
				<stop  offset="1" style="stop-color:#ED88D6"/>
			</linearGradient>
			<path class="st11" d="M627.3,226.6l20.2,75.3c0,0,156.3-38.8,170.1-126.3C817.6,175.6,661.5,238.1,627.3,226.6z"/>
		</g>
	</g>
	<g id="Ebene_2">
		
			<linearGradient id="SVGID_13_" gradientUnits="userSpaceOnUse" x1="426.2516" y1="382.0028" x2="430.9182" y2="121.3361" gradientTransform="matrix(1 0 0 -1 0 524)">
			<stop  offset="0.2341" style="stop-color:#E6CBE3"/>
			<stop  offset="0.6302" style="stop-color:#E6C9E2"/>
			<stop  offset="0.788" style="stop-color:#E5C2E0"/>
			<stop  offset="0.9029" style="stop-color:#E3B6DC"/>
			<stop  offset="0.9971" style="stop-color:#E0A5D6"/>
			<stop  offset="1" style="stop-color:#E0A4D6"/>
		</linearGradient>
		<ellipse class="st12" cx="428.4" cy="262" rx="246.8" ry="194.6"/>
	</g>
	<g id="schattend">
		
			<linearGradient id="SVGID_14_" gradientUnits="userSpaceOnUse" x1="577.6" y1="240.125" x2="577.6" y2="188.925" gradientTransform="matrix(1 0 0 -1 0 524)">
			<stop  offset="0.2341" style="stop-color:#C1495F"/>
			<stop  offset="0.3441" style="stop-color:#BC485D"/>
			<stop  offset="0.4701" style="stop-color:#AE4558"/>
			<stop  offset="0.604" style="stop-color:#974050"/>
			<stop  offset="0.7434" style="stop-color:#773945"/>
			<stop  offset="0.8855" style="stop-color:#4F3036"/>
			<stop  offset="1" style="stop-color:#282828"/>
		</linearGradient>
		<circle class="st13" cx="577.6" cy="298.1" r="25.6"/>
		
			<linearGradient id="SVGID_15_" gradientUnits="userSpaceOnUse" x1="278.6" y1="240.125" x2="278.6" y2="188.925" gradientTransform="matrix(1 0 0 -1 0 524)">
			<stop  offset="0.2341" style="stop-color:#C1495F"/>
			<stop  offset="0.3441" style="stop-color:#BC485D"/>
			<stop  offset="0.4701" style="stop-color:#AE4558"/>
			<stop  offset="0.604" style="stop-color:#974050"/>
			<stop  offset="0.7434" style="stop-color:#773945"/>
			<stop  offset="0.8855" style="stop-color:#4F3036"/>
			<stop  offset="1" style="stop-color:#282828"/>
		</linearGradient>
		<circle class="st14" cx="278.6" cy="298.1" r="25.6"/>
	</g>
	<g id="eyes">
		<circle cx="328" cy="214.4" r="23.8"/>
		<circle class="st15" cx="337.4" cy="204.1" r="7.9"/>
		<circle cx="528" cy="216.3" r="23.8"/>
		<circle class="st15" cx="518.6" cy="206" r="7.9"/>
	</g>
	<g id="smile" class="st16">
		<line class="st17" x1="351.8" y1="214.4" x2="301.7" y2="214.4"/>
		<line class="st17" x1="351.8" y1="214.4" x2="306.6" y2="236.1"/>
		<line class="st17" x1="351.8" y1="212.6" x2="306.6" y2="190.9"/>
		<line class="st17" x1="504.2" y1="215.2" x2="554.3" y2="215.2"/>
		<line class="st17" x1="504.2" y1="215.2" x2="549.4" y2="236.9"/>
		<line class="st17" x1="504.2" y1="213.5" x2="549.4" y2="191.8"/>
	</g>
	
		<linearGradient id="SVGID_16_" gradientUnits="userSpaceOnUse" x1="429.9" y1="92.759" x2="429.9" y2="224.559" gradientTransform="matrix(1 0 0 -1 0 524)">
		<stop  offset="0.3813" style="stop-color:#C1495F"/>
		<stop  offset="0.5122" style="stop-color:#C1495F"/>
		<stop  offset="0.5809" style="stop-color:#A54355"/>
		<stop  offset="0.7286" style="stop-color:#5D333B"/>
		<stop  offset="0.8294" style="stop-color:#282828"/>
	</linearGradient>
	<path class="st18" d="M468.4,348.5l-38.6-9.1l-31.6,9.1H364c0,0,60.4,71.5,131.8,0H468.4z"/>
	<g id="mund" class="st16">
		<path class="st19" d="M428,323"/>
		<path class="st19" d="M328,323"/>
		<path class="st19" d="M528,323"/>
		<path class="st19" d="M428,323"/>
		<path class="st20" d="M528,337.2c-49,29.2-100,0-100,0c-49,29.2-100,0-100,0"/>
	</g>
	<g id="mundMad">
		<path class="st21" d="M409,280"/>
		<path class="st21" d="M309,280"/>
		<path class="st21" d="M509,280"/>
		<path class="st21" d="M409,280"/>
		<path class="st22" d="M528,336.6c-37.5,22.4-76.2,10.5-92.3,3.7c-5-2.1-10.6-1.9-15.4,0.4c-46.5,22.1-92.3-4.1-92.3-4.1"/>
	</g>
</g>
</svg>
